<svg width="24" height="24" viewBox="0 0 24 24" fill="none" xmlns="http://www.w3.org/2000/svg">
<path d="M15.2483 11.9998L21.5365 5.71157C22.4335 4.81457 22.4335 3.36028 21.5365 2.46328C20.6394 1.56628 19.1852 1.56628 18.2882 2.46328L12 8.75146L5.71182 2.46328C4.81482 1.56628 3.36052 1.56628 2.46352 2.46328C1.56652 3.36028 1.56652 4.81457 2.46352 5.71157L8.75171 11.9998L2.46352 18.2879C1.56652 19.1849 1.56652 20.6392 2.46352 21.5362C2.91202 21.9847 3.49983 22.209 4.08765 22.209C4.67546 22.209 5.26332 21.9847 5.71177 21.5362L12 15.2481L18.2882 21.5362C18.7367 21.9847 19.3245 22.209 19.9123 22.209C20.5001 22.209 21.0879 21.9847 21.5364 21.5362C22.4334 20.6392 22.4334 19.1849 21.5364 18.2879L15.2483 11.9998Z" fill="#47CCE7"/>
</svg>
