<svg width="100" height="74" viewBox="0 0 100 74" fill="none" xmlns="http://www.w3.org/2000/svg">
<path fill-rule="evenodd" clip-rule="evenodd" d="M23.3522 5.6165L69.3141 0.0790559C75.3405 -0.645267 80.8635 3.6898 81.5878 9.71255L87.1252 55.6708C87.8495 61.6972 83.5145 67.2202 77.4917 67.9445L31.5298 73.482C25.5034 74.2063 19.9805 69.8712 19.2562 63.8485L13.7187 17.8902C12.9908 11.8638 17.3258 6.34083 23.3522 5.6165ZM69.4373 1.13294L23.4753 6.67039C20.7555 6.99634 18.4159 8.40877 16.8369 10.4224C15.2579 12.4324 14.443 15.0436 14.7726 17.767L20.3101 63.7289C20.636 66.4488 22.0484 68.7883 24.062 70.3674C26.072 71.9464 28.6832 72.7612 31.4067 72.4317L77.3686 66.8942C80.0884 66.5683 82.428 65.1559 84.007 63.1422C85.586 61.1322 86.4009 58.5211 86.0713 55.7976L80.5339 9.83931C80.2079 7.11947 78.7955 4.77991 76.7819 3.20089C74.7683 1.62186 72.1607 0.806996 69.4373 1.13294Z" fill="#BBBAB6"/>
<path fill-rule="evenodd" clip-rule="evenodd" d="M23.2726 8.04285L69.9697 2.41486C74.4822 1.87162 78.6181 5.11658 79.1613 9.62912L84.7893 56.3262C85.3326 60.8387 82.0876 64.9746 77.5714 65.5179L30.8743 71.1459C26.3618 71.6891 22.2259 68.4441 21.6827 63.928L16.0547 17.2345C15.5115 12.722 18.76 8.58609 23.2726 8.04285Z" fill="#FFD500"/>
<path fill-rule="evenodd" clip-rule="evenodd" d="M29.7696 3.07048L76.6225 7.17739C81.1495 7.57577 84.5321 11.603 84.1337 16.13L80.0268 62.9828C79.6284 67.5099 75.6012 70.8925 71.0742 70.4941L24.2213 66.3872C19.6943 65.9888 16.3117 61.9616 16.7101 57.4345L20.817 10.5817C21.2118 6.05107 25.239 2.6721 29.7696 3.07048Z" fill="#285379"/>
<path fill-rule="evenodd" clip-rule="evenodd" d="M9.37277 25.9268V23.3699C9.37277 22.7832 8.89472 22.3052 8.30802 22.3052H5.75116C5.16445 22.3052 4.6864 22.7832 4.6864 23.3699V25.9268C4.6864 26.5135 5.16445 26.9915 5.75116 26.9915H8.30802C8.89472 26.9915 9.37277 26.5135 9.37277 25.9268Z" fill="#FFD500"/>
<path fill-rule="evenodd" clip-rule="evenodd" d="M4.68637 52.1514V49.5945C4.68637 49.0078 4.20832 48.5298 3.62161 48.5298H1.06475C0.478053 48.5298 0 49.0078 0 49.5945V52.1514C0 52.7381 0.478053 53.2162 1.06475 53.2162H3.62161C4.20832 53.2162 4.68637 52.7381 4.68637 52.1514Z" fill="#FFD500"/>
<path fill-rule="evenodd" clip-rule="evenodd" d="M12.2917 57.5835V55.0267C12.2917 54.44 11.8137 53.9619 11.227 53.9619H8.6701C8.0834 53.9619 7.60535 54.44 7.60535 55.0267V57.5835C7.60535 58.1702 8.0834 58.6483 8.6701 58.6483H11.227C11.8137 58.6483 12.2917 58.1702 12.2917 57.5835Z" fill="#FFD500"/>
<path fill-rule="evenodd" clip-rule="evenodd" d="M4.68637 21.2403V18.6834C4.68637 18.0967 4.20832 17.6187 3.62161 17.6187H1.06475C0.478053 17.6187 0 18.0967 0 18.6834V21.2403C0 21.827 0.478053 22.305 1.06475 22.305H3.62161C4.20832 22.305 4.68637 21.827 4.68637 21.2403Z" fill="#FFF58F"/>
<path fill-rule="evenodd" clip-rule="evenodd" d="M7.58371 64.4649V61.908C7.58371 61.3213 7.10566 60.8433 6.51895 60.8433H3.96209C3.37539 60.8433 2.89734 61.3213 2.89734 61.908V64.4649C2.89734 65.0516 3.37539 65.5296 3.96209 65.5296H6.51895C7.10566 65.5296 7.58371 65.0516 7.58371 64.4649Z" fill="#8AC8FF"/>
<path fill-rule="evenodd" clip-rule="evenodd" d="M98.4862 25.3511V22.7942C98.4862 22.2075 98.0081 21.7295 97.4214 21.7295H94.8646C94.2779 21.7295 93.7998 22.2075 93.7998 22.7942V25.3511C93.7998 25.9378 94.2779 26.4159 94.8646 26.4159H97.4214C98.0081 26.4159 98.4862 25.9378 98.4862 25.3511Z" fill="#FFF58F"/>
<path fill-rule="evenodd" clip-rule="evenodd" d="M93.778 44.1836V41.6268C93.778 41.0401 93.3 40.562 92.7133 40.562H90.1564C89.5697 40.562 89.0917 41.0401 89.0917 41.6268V44.1836C89.0917 44.7703 89.5697 45.2484 90.1564 45.2484H92.7133C93.3 45.2484 93.778 44.7703 93.778 44.1836Z" fill="#FFF58F"/>
<path fill-rule="evenodd" clip-rule="evenodd" d="M12.3171 7.94876V5.3919C12.3171 4.8052 11.8391 4.32715 11.2524 4.32715H8.69549C8.10879 4.32715 7.63074 4.8052 7.63074 5.3919V7.94876C7.63074 8.53546 8.10879 9.01352 8.69549 9.01352H11.2524C11.8391 9.01352 12.3171 8.53546 12.3171 7.94876Z" fill="#285379"/>
<path fill-rule="evenodd" clip-rule="evenodd" d="M5.41073 35.4917V32.9349C5.41073 32.3482 4.93268 31.8701 4.34598 31.8701H1.78912C1.20242 31.8701 0.724365 32.3482 0.724365 32.9349V35.4917C0.724365 36.0784 1.20242 36.5565 1.78912 36.5565H4.34598C4.93268 36.5565 5.41073 36.0784 5.41073 35.4917Z" fill="#8AC8FF"/>
<path fill-rule="evenodd" clip-rule="evenodd" d="M92.4924 34.5318V31.9749C92.4924 31.3882 92.0143 30.9102 91.4276 30.9102H88.8708C88.2841 30.9102 87.806 31.3882 87.806 31.9749V34.5318C87.806 35.1185 88.2841 35.5965 88.8708 35.5965H91.4276C92.0143 35.5965 92.4924 35.1185 92.4924 34.5318Z" fill="#285379"/>
<path fill-rule="evenodd" clip-rule="evenodd" d="M93.778 16.6592V14.1024C93.778 13.5157 93.3 13.0376 92.7133 13.0376H90.1564C89.5697 13.0376 89.0917 13.5157 89.0917 14.1024V16.6592C89.0917 17.2459 89.5697 17.724 90.1564 17.724H92.7133C93.3 17.724 93.778 17.2459 93.778 16.6592Z" fill="#FFD500"/>
<path fill-rule="evenodd" clip-rule="evenodd" d="M11.9297 45.2701V42.7132C11.9297 42.1265 11.4516 41.6484 10.8649 41.6484H8.30804C7.72134 41.6484 7.24329 42.1265 7.24329 42.7132V45.2701C7.24329 45.8568 7.72134 46.3348 8.30804 46.3348H10.8649C11.4516 46.3348 11.9297 45.8568 11.9297 45.2701Z" fill="#285379"/>
<path fill-rule="evenodd" clip-rule="evenodd" d="M95.2268 59.7569V57.2C95.2268 56.6133 94.7487 56.1353 94.162 56.1353H91.6052C91.0185 56.1353 90.5404 56.6133 90.5404 57.2V59.7569C90.5404 60.3436 91.0185 60.8216 91.6052 60.8216H94.162C94.7487 60.8216 95.2268 60.3436 95.2268 59.7569Z" fill="#8AC8FF"/>
<path fill-rule="evenodd" clip-rule="evenodd" d="M99.9348 18.4702V15.9134C99.9348 15.3267 99.4567 14.8486 98.87 14.8486H96.3132C95.7265 14.8486 95.2484 15.3267 95.2484 15.9134V18.4702C95.2484 19.0569 95.7265 19.535 96.3132 19.535H98.87C99.4567 19.535 99.9348 19.0569 99.9348 18.4702Z" fill="#8AC8FF"/>
<path fill-rule="evenodd" clip-rule="evenodd" d="M100 49.5577V47.0008C100 46.4141 99.5219 45.936 98.9352 45.936H96.3784C95.7917 45.936 95.3136 46.4141 95.3136 47.0008V49.5577C95.3136 50.1444 95.7917 50.6224 96.3784 50.6224H98.9352C99.5183 50.6224 100 50.1444 100 49.5577Z" fill="#FFF58F"/>
<path d="M44.9443 47.7466C45.1254 47.4786 45.4912 47.4098 45.7592 47.5945C46.0272 47.7756 46.096 48.1413 45.9113 48.4093C44.0751 51.1002 41.6849 52.6539 39.128 53.2913C36.7341 53.8852 34.2026 53.6679 31.8413 52.8205C29.4945 51.9766 27.3215 50.5099 25.6339 48.6013C24.9421 47.819 24.3301 46.9607 23.8231 46.0408C23.7724 45.9865 23.7325 45.914 23.7108 45.8344C23.45 45.3708 23.2327 44.8891 23.048 44.3893C22.4613 42.8828 22.1463 41.2458 22.168 39.5219C22.1499 39.2249 22.139 38.928 22.1318 38.631C22.0593 36.2045 22.2549 33.7382 22.7583 31.4566C24.4496 23.8258 29.0744 17.6039 35.1805 13.7107C41.2901 9.81742 48.8846 8.2565 56.5154 9.94779C64.1461 11.6391 70.3681 16.2639 74.2613 22.3699C78.1545 28.4796 79.7154 36.0741 78.0242 43.7049C76.3329 51.3356 71.7081 57.5575 65.602 61.4508C59.4924 65.344 51.8978 66.9049 44.2671 65.2136C43.952 65.1448 43.7492 64.8297 43.8216 64.5147C43.8904 64.1996 44.2055 63.9968 44.5206 64.0692C51.8363 65.6881 59.1121 64.1923 64.9682 60.4621C70.8244 56.7318 75.2536 50.767 76.8761 43.4514C78.4986 36.1357 76.9992 28.8599 73.269 23.0037C69.5387 17.1476 63.5739 12.7183 56.2582 11.0958C48.9426 9.47698 41.6668 10.9727 35.8106 14.703C29.9545 18.4332 25.5252 24.398 23.9027 31.7137C23.4174 33.9012 23.2291 36.2697 23.3016 38.602C23.3378 39.8732 23.4537 41.1335 23.6384 42.3504C24.1164 44.4147 25.1413 46.2798 26.5103 47.8263C28.0712 49.5936 30.0776 50.9481 32.2361 51.7231C34.3837 52.4945 36.6834 52.6937 38.8491 52.1577C41.138 51.5819 43.282 50.1803 44.9443 47.7466Z" fill="#FFD500"/>
<path fill-rule="evenodd" clip-rule="evenodd" d="M52.3903 4.59514C52.3939 4.59151 52.4011 4.58789 52.3975 4.58789C52.3975 4.59151 52.3939 4.59151 52.3903 4.59514Z" fill="#E30613" stroke="white" stroke-width="0.216" stroke-miterlimit="22.9256"/>
<path fill-rule="evenodd" clip-rule="evenodd" d="M48.8013 35.9439C47.1534 35.1073 44.5531 33.8506 42.3946 32.5541C40.2217 31.2467 38.5014 29.8886 38.6354 28.8166C38.7875 27.5852 38.907 26.343 39.012 25.09C39.0591 24.5105 39.2583 24.0252 39.6205 23.616C40.4788 22.6454 41.3407 21.6784 42.2063 20.715C42.4236 20.4724 42.5757 20.2225 42.6916 19.9002C42.8799 19.3642 43.0646 18.8318 43.2638 18.2958C43.4847 17.6946 43.8903 17.2636 44.4263 17.0319L44.4879 17.0029C44.5024 16.9956 44.6002 16.963 44.6762 16.9449C44.7523 16.9232 44.8537 16.9087 44.8682 16.9051L44.937 16.9015C45.5201 16.8472 46.0814 17.0282 46.5631 17.452C46.9941 17.8286 47.4106 18.2053 47.8343 18.5855C48.0878 18.8137 48.3413 18.9586 48.6491 19.0672C49.8696 19.4982 51.0901 19.9364 52.307 20.3746C52.8249 20.5593 53.2269 20.8889 53.5492 21.3778C54.2409 22.4281 54.9399 23.4638 55.6642 24.4707C56.2944 25.3471 55.4361 27.3643 54.154 29.5518C52.8828 31.7247 51.2024 34.0716 50.1557 35.5963L48.1964 29.1498L45.6432 20.7585L47.425 29.3454L48.8013 35.9439Z" fill="#FFD500"/>
<path fill-rule="evenodd" clip-rule="evenodd" d="M49.8044 39.8843C48.7577 41.409 47.0773 43.7558 45.8061 45.9288C44.5241 48.1162 43.6657 50.1335 44.2959 51.0099C45.0202 52.0167 45.7192 53.0525 46.4109 54.1028C46.7296 54.5881 47.1352 54.9176 47.6531 55.1059C48.87 55.5442 50.0941 55.9824 51.311 56.4133C51.6188 56.522 51.8723 56.6669 52.1258 56.895C52.5496 57.2753 52.966 57.6519 53.397 58.0286C53.8787 58.4487 54.4437 58.6334 55.0231 58.5791L55.0919 58.5755C55.1064 58.5755 55.2114 58.5573 55.2839 58.5356C55.3599 58.5175 55.4577 58.4849 55.4722 58.4777L55.5338 58.4487C56.0698 58.2205 56.4754 57.7859 56.6963 57.1848C56.8955 56.6488 57.0802 56.1164 57.2685 55.5804C57.3808 55.258 57.5365 55.0082 57.7538 54.7655C58.6194 53.8022 59.4813 52.8352 60.3396 51.8646C60.7018 51.4554 60.901 50.9701 60.9481 50.3906C61.0495 49.1375 61.169 47.8953 61.3247 46.664C61.4587 45.592 59.7385 44.2339 57.5655 42.9264C55.4106 41.6299 52.8067 40.3732 51.1589 39.5366L52.5278 46.1316L54.3097 54.7184L51.7564 46.3271L49.8044 39.8843Z" fill="#FFD500"/>
<path fill-rule="evenodd" clip-rule="evenodd" d="M52.0172 37.9539C53.5419 39.0005 55.8851 40.6773 58.0581 41.9449C60.2455 43.2233 62.2628 44.0853 63.1392 43.4551C64.146 42.7308 65.1818 42.0318 66.2321 41.3401C66.7174 41.0214 67.0469 40.6158 67.2353 40.0979C67.6735 38.881 68.1117 37.6569 68.5427 36.44C68.6513 36.1322 68.7962 35.8787 69.0243 35.6252C69.4046 35.2015 69.7813 34.785 70.1579 34.354C70.578 33.8723 70.7627 33.3073 70.7084 32.7279L70.7048 32.6591C70.7048 32.6446 70.6867 32.5396 70.6649 32.4671C70.6468 32.3911 70.6142 32.2933 70.607 32.2788L70.578 32.2172C70.3498 31.6812 69.9153 31.2756 69.3141 31.0547C68.7781 30.8555 68.2457 30.6708 67.7097 30.4825C67.3874 30.3702 67.1375 30.2145 66.8948 29.9972C65.9315 29.1316 64.9645 28.2697 63.9939 27.4114C63.5847 27.0492 63.0994 26.85 62.5199 26.8029C61.2668 26.7015 60.0246 26.582 58.7933 26.4263C57.7213 26.2923 56.3632 28.0125 55.0558 30.1855C53.7592 32.3404 52.5061 34.9371 51.6696 36.5849L58.3804 35.1942L66.9673 33.4124L58.576 35.9656L52.0172 37.9539Z" fill="#FFD500"/>
<path fill-rule="evenodd" clip-rule="evenodd" d="M48.3015 38.903C47.4649 40.5509 46.2118 43.1476 44.9153 45.3024C43.6079 47.4754 42.2498 49.1957 41.1778 49.0617C39.9465 48.9096 38.7042 48.79 37.4512 48.685C36.8717 48.6379 36.3864 48.4387 35.9772 48.0766C35.0066 47.2183 34.0396 46.3563 33.0762 45.4908C32.8336 45.2735 32.5837 45.1214 32.2614 45.0055C31.7254 44.8171 31.193 44.6324 30.657 44.4332C30.0558 44.2123 29.6248 43.8067 29.3931 43.2707L29.3641 43.2091C29.3568 43.1946 29.3243 43.0969 29.3061 43.0208C29.2844 42.9448 29.2699 42.8434 29.2663 42.8289L29.2627 42.7601C29.2084 42.177 29.3894 41.6156 29.8132 41.134C30.1898 40.703 30.5665 40.2865 30.9467 39.8628C31.1749 39.6092 31.3198 39.3557 31.4284 39.0479C31.8594 37.8274 32.2976 36.6069 32.7358 35.3901C32.9205 34.8722 33.2501 34.4702 33.739 34.1479C34.7893 33.4561 35.8251 32.7572 36.8319 32.0328C37.7083 31.4027 39.7255 32.261 41.913 33.5431C44.0823 34.8106 46.4291 36.491 47.9538 37.5341L41.3987 39.5296L33.0074 42.0828L41.5943 40.301L48.3015 38.903Z" fill="#FFD500"/>
</svg>
