<svg width="20" height="20" viewBox="0 0 20 20" fill="none" xmlns="http://www.w3.org/2000/svg">
<path d="M13.75 12.1877C12.9128 12.1864 12.1042 12.4921 11.4774 13.0471L8.28909 11.0002C8.48699 10.3482 8.48699 9.6522 8.28909 9.00022L11.4774 6.95334C12.098 7.49873 12.8948 7.80136 13.721 7.80543C14.5471 7.8095 15.3469 7.51472 15.9728 6.97547C16.5988 6.43621 17.0086 5.68884 17.1268 4.87116C17.245 4.05348 17.0636 3.22063 16.616 2.52619C16.1684 1.83175 15.4849 1.32255 14.6914 1.09248C13.8979 0.862413 13.0479 0.92699 12.2983 1.27431C11.5487 1.62162 10.9499 2.22825 10.6124 2.98234C10.2749 3.73643 10.2214 4.58713 10.4617 5.37756L7.27268 7.42209C6.77676 6.98382 6.16485 6.69802 5.51045 6.59904C4.85606 6.50005 4.187 6.59209 3.58363 6.86408C2.98027 7.13608 2.46825 7.57647 2.10907 8.13237C1.7499 8.68827 1.55884 9.33604 1.55884 9.99788C1.55884 10.6597 1.7499 11.3075 2.10907 11.8634C2.46825 12.4193 2.98027 12.8597 3.58363 13.1317C4.187 13.4037 4.85606 13.4957 5.51045 13.3967C6.16485 13.2977 6.77676 13.0119 7.27268 12.5737L10.461 14.6252C10.2506 15.3171 10.2638 16.0577 10.4986 16.7416C10.7335 17.4255 11.178 18.018 11.769 18.4347C12.36 18.8514 13.0674 19.071 13.7905 19.0625C14.5136 19.0539 15.2155 18.8175 15.7965 18.387C16.3775 17.9564 16.8079 17.3536 17.0265 16.6643C17.2451 15.975 17.2407 15.2343 17.014 14.5476C16.7873 13.861 16.3499 13.2632 15.7639 12.8396C15.1779 12.4159 14.4732 12.1878 13.75 12.1877ZM13.75 2.81272C14.0591 2.81272 14.3612 2.90436 14.6181 3.07605C14.8751 3.24774 15.0753 3.49177 15.1936 3.77728C15.3119 4.06279 15.3428 4.37695 15.2825 4.68005C15.2222 4.98314 15.0734 5.26155 14.8549 5.48007C14.6364 5.69859 14.358 5.84741 14.0549 5.9077C13.7518 5.96799 13.4376 5.93704 13.1521 5.81878C12.8666 5.70052 12.6225 5.50025 12.4509 5.2433C12.2792 4.98635 12.1875 4.68425 12.1875 4.37522C12.1875 3.96082 12.3521 3.56339 12.6452 3.27037C12.9382 2.97734 13.3356 2.81272 13.75 2.81272ZM5.00003 11.5627C4.691 11.5627 4.3889 11.4711 4.13195 11.2994C3.875 11.1277 3.67473 10.8837 3.55647 10.5982C3.43821 10.3127 3.40726 9.99849 3.46755 9.69539C3.52784 9.3923 3.67666 9.11389 3.89517 8.89537C4.11369 8.67685 4.39211 8.52803 4.6952 8.46774C4.9983 8.40745 5.31246 8.4384 5.59797 8.55666C5.88348 8.67492 6.12751 8.87519 6.2992 9.13214C6.47089 9.38909 6.56253 9.69119 6.56253 10.0002C6.56253 10.4146 6.39791 10.812 6.10488 11.1051C5.81186 11.3981 5.41443 11.5627 5.00003 11.5627ZM13.75 17.1877C13.441 17.1877 13.1389 17.0961 12.882 16.9244C12.625 16.7527 12.4247 16.5087 12.3065 16.2232C12.1882 15.9377 12.1573 15.6235 12.2176 15.3204C12.2778 15.0173 12.4267 14.7389 12.6452 14.5204C12.8637 14.3018 13.1421 14.153 13.4452 14.0927C13.7483 14.0325 14.0625 14.0634 14.348 14.1817C14.6335 14.2999 14.8775 14.5002 15.0492 14.7571C15.2209 15.0141 15.3125 15.3162 15.3125 15.6252C15.3125 16.0396 15.1479 16.437 14.8549 16.7301C14.5619 17.0231 14.1644 17.1877 13.75 17.1877Z" fill="#F1E1CA"/>
</svg>
